<?xml version="1.0" standalone="no"?>
<!DOCTYPE svg PUBLIC "-//W3C//DTD SVG 20010904//EN"
 "http://www.w3.org/TR/2001/REC-SVG-20010904/DTD/svg10.dtd">
<svg version="1.0" xmlns="http://www.w3.org/2000/svg"
 width="1162.000000pt" height="1114.000000pt" viewBox="0 0 1162.000000 1114.000000"
 preserveAspectRatio="xMidYMid meet">
<metadata>
Created by potrace 1.15, written by Peter Selinger 2001-2017
</metadata>
<g transform="translate(0.000000,1114.000000) scale(0.100000,-0.100000)"
fill="#000000" stroke="none">
<path d="M4145 9794 c-22 -2 -89 -9 -150 -14 -1317 -126 -2359 -1005 -2808
-2371 -282 -857 -311 -1935 -75 -2774 166 -592 448 -1087 842 -1480 537 -536
1232 -847 2106 -942 193 -21 816 -24 1045 -4 311 26 529 55 782 102 l163 31
158 -41 c328 -85 579 -115 952 -115 455 0 795 52 1208 186 1358 439 2225 1557
2397 3088 65 586 31 1173 -100 1706 -154 626 -440 1168 -837 1589 -554 587
-1239 920 -2103 1021 -210 25 -682 25 -885 0 -372 -45 -675 -119 -974 -238
l-100 -39 -75 35 c-252 117 -530 195 -841 236 -148 20 -596 35 -705 24z m460
-969 c55 -8 106 -17 114 -20 10 -4 -6 -27 -56 -78 -256 -262 -505 -647 -672
-1039 -100 -235 -202 -584 -252 -860 l-23 -128 -738 0 -738 0 0 24 c0 41 38
251 66 359 166 656 501 1174 949 1470 236 155 520 256 810 287 111 12 420 4
540 -15z m2905 -36 c430 -53 781 -219 1090 -515 505 -485 811 -1280 837 -2174
18 -637 -123 -1273 -389 -1755 -361 -653 -903 -1055 -1549 -1150 -137 -19
-419 -20 -558 0 -57 8 -105 16 -106 17 -1 2 -21 86 -45 188 -23 102 -44 187
-46 189 -1 2 -54 -17 -116 -42 -62 -25 -167 -64 -233 -87 -138 -47 -122 -50
-258 41 -614 410 -1012 1144 -1112 2049 -8 74 -15 150 -15 168 l0 32 1169 0
1168 0 19 153 c26 209 26 732 1 952 -82 703 -301 1324 -634 1798 -30 43 -54
80 -52 82 7 5 211 45 284 54 101 12 446 13 545 0z m-1733 -737 c201 -341 312
-741 330 -1199 l6 -153 -521 0 c-482 0 -522 1 -522 17 0 37 75 334 115 457 98
303 246 594 413 816 77 101 115 148 122 149 3 0 28 -39 57 -87z m-2113 -2333
c3 -17 6 -56 6 -86 0 -165 58 -557 120 -808 127 -516 346 -978 650 -1370 80
-102 92 -117 164 -194 l41 -44 -128 7 c-472 22 -941 169 -1297 407 -610 407
-947 1082 -996 1992 l-7 127 720 0 721 0 6 -31z"/>
<path d="M2200 1489 l0 -191 -37 36 c-119 115 -306 43 -362 -139 -60 -192 8
-409 144 -461 83 -31 185 -2 236 69 l29 40 0 -56 0 -57 45 0 45 0 0 475 0 475
-50 0 -50 0 0 -191z m-90 -210 c60 -34 84 -87 88 -199 5 -122 -9 -174 -58
-221 -79 -75 -184 -50 -235 57 -42 89 -26 256 32 325 50 59 111 73 173 38z"/>
<path d="M4430 1488 l0 -192 -36 37 c-107 110 -290 52 -357 -113 -18 -46 -22
-74 -21 -175 0 -107 2 -126 25 -175 30 -64 90 -122 144 -140 78 -26 178 7 226
73 l29 40 0 -56 0 -57 45 0 45 0 0 475 0 475 -50 0 -50 0 0 -192z m-92 -207
c60 -31 86 -87 90 -201 5 -122 -9 -174 -58 -221 -79 -75 -184 -50 -235 57 -42
89 -26 256 32 325 49 58 108 72 171 40z"/>
<path d="M10170 1205 l0 -475 50 0 50 0 0 475 0 475 -50 0 -50 0 0 -475z"/>
<path d="M10440 1205 l0 -475 50 0 50 0 0 475 0 475 -50 0 -50 0 0 -475z"/>
<path d="M6288 1548 l-38 -10 0 -79 0 -79 -45 0 -45 0 0 -45 0 -45 45 0 45 0
0 -208 c0 -232 11 -295 56 -331 33 -26 82 -35 139 -27 l45 7 0 45 0 44 -48 0
c-85 0 -86 5 -90 256 l-3 214 75 0 76 0 0 45 0 45 -75 0 -75 0 0 90 c0 98 2
95 -62 78z"/>
<path d="M6668 1548 l-38 -10 0 -79 0 -79 -45 0 -45 0 0 -45 0 -45 45 0 45 0
0 -208 c0 -232 11 -295 56 -331 33 -26 82 -35 139 -27 l45 7 0 45 0 44 -48 0
c-85 0 -86 5 -90 256 l-3 214 75 0 76 0 0 45 0 45 -75 0 -75 0 0 90 c0 98 2
95 -62 78z"/>
<path d="M1388 1380 c-119 -36 -192 -163 -192 -335 -1 -146 49 -247 147 -297
70 -35 195 -35 289 1 24 9 25 13 18 46 -10 46 -14 49 -40 35 -33 -18 -152 -24
-193 -11 -66 22 -127 112 -127 189 l0 22 201 0 202 0 -6 78 c-9 138 -61 230
-149 266 -40 17 -106 19 -150 6z m132 -98 c33 -24 70 -98 70 -139 l0 -33 -151
0 -151 0 7 33 c29 135 137 202 225 139z"/>
<path d="M2625 1374 c-63 -22 -111 -68 -147 -142 -32 -64 -33 -72 -33 -182 0
-98 4 -122 23 -165 98 -214 375 -218 479 -7 26 53 28 65 28 182 0 113 -2 130
-25 174 -63 128 -197 186 -325 140z m154 -90 c83 -49 123 -205 86 -332 -29
-96 -94 -148 -174 -139 -112 13 -183 188 -137 341 18 58 51 108 85 130 34 20
105 20 140 0z"/>
<path d="M3195 1372 c-83 -28 -87 -32 -74 -72 7 -19 13 -36 14 -38 1 -1 22 7
46 18 48 22 125 26 162 9 30 -14 54 -55 63 -107 l7 -42 -49 0 c-98 0 -191 -37
-242 -94 -83 -95 -60 -261 42 -307 76 -35 170 -16 226 46 l25 27 5 -39 c5 -37
6 -38 50 -41 l45 -3 -3 228 c-3 260 -12 311 -67 372 -55 61 -149 77 -250 43z
m215 -382 c0 -80 -14 -114 -60 -154 -37 -30 -102 -36 -137 -11 -28 20 -47 77
-39 120 12 65 93 113 194 114 l42 1 0 -70z"/>
<path d="M3865 1371 c-35 -22 -57 -45 -77 -85 l-15 -29 -7 62 -7 61 -39 0 -40
0 0 -325 0 -325 49 0 50 0 3 213 c3 192 5 216 24 252 26 49 76 85 120 85 l34
0 0 55 0 55 -32 0 c-18 0 -46 -8 -63 -19z"/>
<path d="M4847 1375 c-85 -32 -143 -99 -172 -200 -24 -80 -17 -220 14 -290 94
-214 374 -218 478 -7 26 53 28 65 28 182 0 117 -2 128 -27 177 -68 128 -196
183 -321 138z m159 -96 c75 -46 114 -204 80 -322 -29 -100 -93 -153 -175 -144
-94 10 -159 128 -149 268 6 83 44 164 90 197 42 29 108 30 154 1z"/>
<path d="M5735 1374 c-63 -22 -111 -68 -147 -142 -32 -64 -33 -72 -33 -182 0
-98 4 -122 23 -165 98 -214 375 -218 479 -7 26 53 28 65 28 182 0 117 -2 128
-27 177 -68 128 -196 182 -323 137z m161 -95 c75 -46 114 -204 80 -322 -29
-100 -93 -153 -175 -144 -129 14 -194 233 -117 391 16 32 40 63 59 75 42 27
109 27 153 0z"/>
<path d="M7105 1383 c-59 -15 -116 -47 -110 -60 3 -8 8 -26 11 -39 3 -13 7
-24 9 -24 2 0 22 9 46 20 52 23 129 26 168 6 30 -16 48 -48 57 -105 l6 -38
-75 -6 c-176 -13 -279 -112 -264 -254 7 -69 37 -116 91 -142 75 -37 169 -19
226 44 l25 27 5 -39 c5 -37 6 -38 50 -41 l45 -3 -2 218 c-2 120 -7 241 -13
269 -14 67 -55 129 -100 151 -35 17 -137 26 -175 16z m185 -393 c0 -80 -14
-114 -60 -154 -37 -30 -102 -36 -137 -11 -28 20 -47 77 -39 120 8 39 62 92
104 101 15 3 32 7 37 9 6 2 29 4 53 4 l42 1 0 -70z"/>
<path d="M8485 1383 c-55 -14 -116 -47 -110 -60 3 -8 8 -26 11 -39 3 -13 7
-24 9 -24 2 0 22 9 46 20 52 23 129 26 168 5 30 -15 61 -76 61 -120 0 -23 -4
-25 -47 -25 -54 0 -133 -19 -179 -43 -76 -39 -121 -129 -110 -220 7 -65 38
-111 90 -136 75 -37 169 -19 226 44 l25 27 5 -39 c5 -37 6 -38 50 -41 l45 -3
-2 108 c-2 59 -4 173 -6 253 -3 135 -5 149 -30 195 -28 54 -52 75 -106 93 -34
12 -108 14 -146 5z m185 -393 c0 -80 -14 -114 -60 -154 -34 -28 -94 -35 -132
-15 -44 24 -59 124 -25 170 31 41 96 66 175 68 l42 1 0 -70z"/>
<path d="M9134 1371 c-22 -10 -55 -36 -72 -57 l-32 -39 0 37 c0 60 -7 68 -57
68 l-45 0 6 -31 c3 -17 6 -164 6 -325 l0 -294 49 0 50 0 3 228 c3 224 4 229
28 264 50 74 133 91 188 40 45 -42 52 -84 52 -319 l0 -213 50 0 50 0 0 228 c0
257 -8 307 -63 369 -56 64 -134 80 -213 44z"/>
<path d="M9738 1380 c-119 -36 -192 -163 -192 -335 -1 -146 49 -247 147 -297
70 -35 195 -35 289 1 24 9 25 13 18 46 -5 20 -10 38 -12 40 -2 2 -22 -2 -43
-10 -51 -18 -146 -19 -188 -1 -62 26 -117 111 -117 184 l0 22 201 0 202 0 -6
78 c-10 135 -58 225 -141 263 -43 19 -111 23 -158 9z m132 -98 c33 -24 70 -98
70 -139 l0 -33 -150 0 c-82 0 -150 4 -150 8 0 5 7 31 15 58 34 113 136 163
215 106z"/>
<path d="M7482 1368 c3 -7 51 -154 107 -325 l102 -313 48 0 49 0 56 163 c31
89 81 234 110 322 l54 160 -50 3 c-28 2 -52 2 -54 0 -1 -2 -38 -120 -80 -262
-54 -180 -80 -253 -85 -240 -6 15 -121 401 -145 487 -4 13 -17 17 -61 17 -40
0 -54 -3 -51 -12z"/>
<path d="M8110 1055 l0 -325 50 0 50 0 0 325 0 325 -50 0 -50 0 0 -325z"/>
<path d="M10720 1055 l0 -325 50 0 50 0 0 325 0 325 -50 0 -50 0 0 -325z"/>
</g>
</svg>
